<?xml version="1.0" encoding="UTF-8" standalone="no"?>
<svg
   width="80px"
   height="80px"
   viewBox="0 0 24 24"
   fill="none"
   version="1.1"
   id="svg2"
   sodipodi:docname="passwd-show.svg"
   inkscape:version="1.4.2 (1:1.4.2+202505120737+ebf0e940d0)"
   xmlns:inkscape="http://www.inkscape.org/namespaces/inkscape"
   xmlns:sodipodi="http://sodipodi.sourceforge.net/DTD/sodipodi-0.dtd"
   xmlns="http://www.w3.org/2000/svg"
   xmlns:svg="http://www.w3.org/2000/svg">
  <defs
     id="defs2" />
  <sodipodi:namedview
     id="namedview2"
     pagecolor="#505050"
     bordercolor="#eeeeee"
     borderopacity="1"
     inkscape:showpageshadow="0"
     inkscape:pageopacity="0"
     inkscape:pagecheckerboard="0"
     inkscape:deskcolor="#505050"
     inkscape:zoom="1.045"
     inkscape:cx="400"
     inkscape:cy="400"
     inkscape:window-width="1914"
     inkscape:window-height="1049"
     inkscape:window-x="0"
     inkscape:window-y="25"
     inkscape:window-maximized="1"
     inkscape:current-layer="svg2" />
  <path
     d="M 10.904158,5.0575282 C 4.726991,5.8383322 2,12 2,12 c 0,0 3.63636,7 10,7 2.0503,0 3.8174,-0.7266 5.2711,-1.7116 M 11,5.05822 C 11.3254,5.02013 11.6588,5 12,5 c 6.3636,0 10,7 10,7 0,0 -1.323379,3.169021 -5.330144,5.646897"
     stroke="#666666"
     stroke-width="2"
     stroke-linecap="round"
     stroke-linejoin="round"
     id="path1"
     sodipodi:nodetypes="ccsccscc" />
  <path
     d="M14 14.2362C13.4692 14.7112 12.7684 15.0001 12 15.0001C10.3431 15.0001 9 13.657 9 12.0001C9 11.1764 9.33193 10.4303 9.86932 9.88818"
     stroke="#666666"
     stroke-width="2"
     stroke-linecap="round"
     stroke-linejoin="round"
     id="path2" />
</svg>
